<svg width="20" height="20" viewBox="0 0 20 20" fill="none" xmlns="http://www.w3.org/2000/svg">
<path d="M9.99984 15.8334V18.3334M9.99984 15.8334C11.5469 15.8334 13.0307 15.2188 14.1246 14.1248C15.2186 13.0309 15.8332 11.5471 15.8332 10V8.33337M9.99984 15.8334C8.45274 15.8334 6.96901 15.2188 5.87505 14.1248C4.78109 13.0309 4.1665 11.5471 4.1665 10V8.33337" stroke="white" stroke-width="1.66667" stroke-linecap="round" stroke-linejoin="round"/>
<path d="M12.5 4.16669C12.5 2.78598 11.3807 1.66669 10 1.66669C8.61929 1.66669 7.5 2.78598 7.5 4.16669V10C7.5 11.3807 8.61929 12.5 10 12.5C11.3807 12.5 12.5 11.3807 12.5 10V4.16669Z" stroke="white" stroke-width="1.66667" stroke-linecap="round" stroke-linejoin="round"/>
</svg>
